<svg xmlns="http://www.w3.org/2000/svg" width="170" height="170" viewBox="0 0 170 170" fill="none"><path d="M45.593 150.741L54.0807 132.455L57.1411 133.876L53.5692 141.571L62.2297 145.591L65.8016 137.896L68.8493 139.31L60.3616 157.596L57.3139 156.182L60.8976 148.461L52.2371 144.441L48.6534 152.162L45.593 150.741Z" fill="#202020"></path><path d="M85.7346 161.815L83.4856 141.781L86.8385 141.405L87.785 149.836L97.2734 148.771L96.3269 140.34L99.6659 139.965L101.915 159.999L98.5759 160.374L97.6263 151.915L88.1379 152.98L89.0875 161.439L85.7346 161.815Z" fill="#202020"></path><path d="M125.786 150.421L113.455 134.471L116.125 132.408L121.314 139.12L128.868 133.28L123.678 126.568L126.337 124.513L138.667 140.462L136.009 142.517L130.803 135.783L123.249 141.623L128.456 148.357L125.786 150.421Z" fill="#202020"></path><path d="M153.881 119.894L135.244 112.209L140.207 100.172L143.133 101.378L139.455 110.296L144.05 112.191L147.087 104.826L150.012 106.032L146.975 113.397L152.243 115.569L155.92 106.651L158.845 107.858L153.881 119.894Z" fill="#202020"></path><path d="M162.407 83.0148L142.359 85.139L140.987 72.1915L144.134 71.8581L145.15 81.4504L150.093 80.9267L149.253 73.005L152.4 72.6717L153.239 80.5933L158.905 79.9929L157.889 70.4006L161.035 70.0672L162.407 83.0148Z" fill="#202020"></path><path d="M152.329 46.5288L135.716 57.9494L128.34 47.2201L130.947 45.4277L136.412 53.3766L140.507 50.5611L135.995 43.9966L138.602 42.2042L143.115 48.7687L147.81 45.5408L142.346 37.5919L144.953 35.7995L152.329 46.5288Z" fill="#202020"></path><path d="M125.833 19.1267L116.669 37.0838L113.664 35.5502L121.389 20.4114L113.458 16.3642L114.896 13.5459L125.833 19.1267Z" fill="#202020"></path><path d="M89.7302 7.78892L90.2308 27.9427L86.8579 28.0265L86.4358 11.0357L77.5346 11.2568L77.456 8.09381L89.7302 7.78892Z" fill="#202020"></path><path d="M52.5874 15.0246L62.6312 32.5046L59.7057 34.1855L51.2383 19.4489L43.518 23.8849L41.9417 21.1415L52.5874 15.0246Z" fill="#202020"></path><path d="M18.625 46.0454C19.6112 44.2871 20.8386 42.9958 22.3069 42.1714C23.7834 41.3516 25.399 40.9897 27.1536 41.0857C28.9037 41.1899 30.6864 41.7511 32.5017 42.7693C34.3169 43.7875 35.7252 45.0162 36.7265 46.4554C37.7232 47.9027 38.2525 49.4677 38.3145 51.1505C38.3847 52.8379 37.9266 54.5607 36.9404 56.319C35.9541 58.0772 34.7227 59.3663 33.2462 60.1861C31.7733 61.0186 30.1618 61.3828 28.4117 61.2786C26.657 61.1826 24.8721 60.6255 23.0568 59.6072C21.2416 58.589 19.8356 57.3562 18.8389 55.909C17.8376 54.4698 17.3042 52.9025 17.2386 51.207C17.1766 49.5242 17.6387 47.8036 18.625 46.0454ZM21.3967 47.6001C20.7265 48.7759 20.4368 49.9029 20.5275 50.9811C20.6137 52.0675 21.0275 53.0755 21.7689 54.005C22.5057 54.9426 23.5172 55.7722 24.8033 56.4936C26.0895 57.2151 27.3166 57.6412 28.4845 57.772C29.6561 57.9155 30.7279 57.7408 31.6999 57.248C32.6674 56.7633 33.4903 55.9354 34.1686 54.7642C34.8389 53.5885 35.1286 52.4615 35.0378 51.3832C34.947 50.305 34.5332 49.297 33.7964 48.3593C33.0551 47.4298 32.0413 46.6043 30.7552 45.8829C29.469 45.1615 28.2402 44.729 27.0686 44.5855C25.9052 44.4466 24.8397 44.6194 23.8723 45.1041C22.9003 45.5969 22.0751 46.4289 21.3967 47.6001Z" fill="#202020"></path><path d="M8.39428 88.9254C8.25675 86.9141 8.57659 85.1615 9.35382 83.6677C10.1404 82.1732 11.294 80.9857 12.8148 80.1052C14.3363 79.2341 16.1353 78.7275 18.2117 78.5855C20.2882 78.4435 22.1394 78.7005 23.7653 79.3564C25.3918 80.0217 26.6917 81.0414 27.6651 82.4155C28.6477 83.789 29.2078 85.4814 29.3454 87.4927C29.4829 89.504 29.1584 91.2569 28.3719 92.7513C27.5953 94.2545 26.4462 95.4417 24.9248 96.3128C23.404 97.1933 21.6053 97.7045 19.5289 97.8465C17.4524 97.9885 15.6009 97.7269 13.9744 97.0616C12.3485 96.4057 11.0439 95.3863 10.0606 94.0035C9.08727 92.6294 8.53182 90.9367 8.39428 88.9254ZM11.5649 88.7086C11.6479 90.0594 12.0226 91.161 12.689 92.0136C13.356 92.8754 14.2542 93.4922 15.3835 93.8641C16.5135 94.2452 17.8141 94.3854 19.2853 94.2848C20.7565 94.1842 22.0166 93.8689 23.0656 93.3387C24.1245 92.8173 24.9256 92.0842 25.4691 91.1396C26.0133 90.2043 26.2485 89.0609 26.1748 87.7095C26.0917 86.3587 25.717 85.257 25.0507 84.4045C24.3843 83.552 23.4861 82.9351 22.3561 82.554C21.2268 82.1822 19.9265 82.0466 18.4553 82.1472C16.9841 82.2478 15.719 82.5588 14.6601 83.0803C13.6105 83.6011 12.8137 84.3292 12.2696 85.2645C11.7261 86.2091 11.4912 87.3571 11.5649 88.7086Z" fill="#202020"></path><path d="M23.314 130.407C22.0976 128.8 21.4055 127.158 21.2379 125.483C21.0777 123.801 21.3928 122.176 22.1832 120.607C22.9792 119.045 24.2071 117.636 25.8669 116.38C27.5266 115.124 29.2163 114.325 30.9359 113.984C32.6612 113.65 34.3073 113.791 35.8742 114.408C37.4485 115.019 38.8439 116.129 40.0603 117.736C41.2768 119.344 41.9651 120.988 42.1253 122.67C42.2986 124.353 41.9872 125.975 41.1912 127.537C40.4008 129.107 39.1757 130.519 37.5159 131.775C35.8562 133.031 34.1637 133.826 32.4384 134.16C30.7188 134.501 29.069 134.363 27.489 133.744C25.9221 133.127 24.5304 132.015 23.314 130.407ZM25.8483 128.49C26.6574 129.575 27.5742 130.291 28.5986 130.64C29.6287 130.996 30.718 131.02 31.8666 130.713C33.0208 130.413 34.1859 129.818 35.3618 128.928C36.5378 128.039 37.4195 127.085 38.0069 126.067C38.6074 125.05 38.8764 123.998 38.8139 122.91C38.757 121.83 38.3278 120.744 37.5261 119.654C36.7169 118.569 35.8001 117.852 34.7757 117.504C33.7513 117.155 32.662 117.131 31.5078 117.431C30.3592 117.738 29.1969 118.337 28.021 119.227C26.845 120.116 25.9568 121.069 25.3563 122.086C24.7632 123.096 24.4951 124.142 24.552 125.222C24.6145 126.31 25.0466 127.399 25.8483 128.49Z" fill="#202020"></path></svg>